<svg xmlns="http://www.w3.org/2000/svg" viewBox="0 0 1200 630" role="img" aria-labelledby="title desc">
  <title id="title">Panerelay</title>
  <desc id="desc">Let AI agents work in the browser you already use.</desc>
  <defs>
    <radialGradient id="glow" cx="78%" cy="16%" r="78%">
      <stop offset="0" stop-color="#173f31"/>
      <stop offset=".52" stop-color="#0b1712"/>
      <stop offset="1" stop-color="#080b0a"/>
    </radialGradient>
    <pattern id="grid" width="40" height="40" patternUnits="userSpaceOnUse">
      <path d="M40 0H0V40" fill="none" stroke="#f4f7f5" stroke-opacity=".045"/>
    </pattern>
  </defs>
  <rect width="1200" height="630" fill="url(#glow)"/>
  <rect width="1200" height="630" fill="url(#grid)"/>
  <g transform="translate(72 72)">
    <rect width="88" height="88" rx="20" fill="#111513"/>
    <path d="M38 19H21V69H38M50 19H67V69H50" fill="none" stroke="#f4f7f5" stroke-width="7" stroke-linecap="round" stroke-linejoin="round"/>
    <path d="M35 56L54 37" fill="none" stroke="#20e68f" stroke-width="8" stroke-linecap="round"/>
  </g>
  <text x="184" y="132" fill="#f4f7f5" font-family="Arial, Helvetica, sans-serif" font-size="44" font-weight="700">Panerelay</text>
  <text x="72" y="305" fill="#f4f7f5" font-family="Arial, Helvetica, sans-serif" font-size="74" font-weight="700">Your browser.</text>
  <text x="72" y="392" fill="#20e68f" font-family="Georgia, serif" font-size="82" font-style="italic">Agent-ready.</text>
  <text x="72" y="476" fill="#9ba7a1" font-family="Arial, Helvetica, sans-serif" font-size="28">Explicit tabs · visible control · local-first</text>
  <g transform="translate(807 208)">
    <rect width="304" height="224" rx="18" fill="#0e1411" stroke="#405048"/>
    <rect width="304" height="38" rx="18" fill="#151c18"/>
    <circle cx="20" cy="19" r="4" fill="#20e68f"/>
    <circle cx="36" cy="19" r="4" fill="#617068"/>
    <circle cx="52" cy="19" r="4" fill="#617068"/>
    <path d="M72 19H220" stroke="#405048"/>
    <rect x="26" y="72" width="110" height="14" rx="7" fill="#f4f7f5" fill-opacity=".72"/>
    <rect x="26" y="100" width="198" height="8" rx="4" fill="#8f9b95" fill-opacity=".35"/>
    <rect x="26" y="119" width="162" height="8" rx="4" fill="#8f9b95" fill-opacity=".24"/>
    <rect x="201" y="54" width="81" height="142" rx="10" fill="#111a16" stroke="#20e68f" stroke-opacity=".55"/>
    <circle cx="220" cy="74" r="5" fill="#20e68f"/>
    <rect x="232" y="70" width="32" height="8" rx="4" fill="#f4f7f5" fill-opacity=".58"/>
    <path d="M150 152H204" stroke="#20e68f" stroke-width="3" stroke-dasharray="5 6"/>
    <circle cx="150" cy="152" r="5" fill="#20e68f"/>
  </g>
</svg>
